<svg xmlns="http://www.w3.org/2000/svg" viewBox="0 0 940 310" font-family="ui-monospace,SFMono-Regular,Menlo,Consolas,monospace" role="img" aria-label="fleet telemetry">
  <style>
    @keyframes blink{0%,45%{opacity:1}50%,100%{opacity:0}}
    .cur{animation:blink 1.1s steps(1) infinite}
    @keyframes pulse{0%,100%{opacity:1}50%{opacity:.25}}
    .dot{animation:pulse 2.2s ease-in-out infinite}
    @keyframes sweep{from{transform:translateY(-10px)}to{transform:translateY(320px)}}
    .sweep{animation:sweep 8s linear infinite}
    @keyframes grow{from{transform:scaleY(0)}to{transform:scaleY(1)}}
    .bar{transform-box:fill-box;transform-origin:bottom;animation:grow .9s ease-out both}
  </style>
  <rect x="1" y="1" width="938" height="308" rx="12" fill="#0a040d" stroke="#ff2a4d" stroke-opacity=".32"/>
  <clipPath id="panel"><rect x="1" y="1" width="938" height="308" rx="12"/></clipPath>
  <g clip-path="url(#panel)"><rect class="sweep" width="940" height="3" fill="#ff5c72" opacity=".05"/></g>
  <text x="36" y="42" font-size="15" letter-spacing="2" fill="#ff5c72" font-weight="bold">OSIRIS // FLEET TELEMETRY</text>
  <text x="904" y="42" font-size="12.5" letter-spacing="1.5" fill="#9a6b76" text-anchor="end">CRIMSONSITHRIA · LIVE <tspan class="dot" fill="#ff3b5c">●</tspan></text>
  <line x1="24" y1="58" x2="916" y2="58" stroke="#ff2a4d" stroke-opacity=".18"/>
  <text x="36" y="96" font-size="14.5" fill="#9a6b76">▸ SYNC ·····························<tspan fill="#ffe4e8"> 2026-07-22 19:20 UTC</tspan></text>
  <text x="36" y="126" font-size="14.5" fill="#9a6b76">▸ CONTRIBUTIONS / 7D ···············<tspan fill="#ffe4e8"> 484</tspan></text>
  <text x="36" y="156" font-size="14.5" fill="#9a6b76">▸ CURRENT STREAK ···················<tspan fill="#ffe4e8"> 25 days</tspan></text>
  <text x="36" y="186" font-size="14.5" fill="#9a6b76">▸ CONTRIBUTIONS / 365D ·············<tspan fill="#ffe4e8"> 4976</tspan></text>
  <text x="36" y="216" font-size="14.5" fill="#9a6b76">▸ OPEN PRS · HOME WATERS ···········<tspan fill="#ffe4e8"> 7</tspan></text>
  <text x="36" y="246" font-size="14.5" fill="#9a6b76">▸ SEALED TRAFFIC ···················<tspan fill="#ffe4e8"> woven into counts</tspan></text>
  <text x="646" y="96" font-size="11.5" letter-spacing="2" fill="#9a6b76">ACTIVITY // 14D</text>
    <rect class="bar" x="646" y="226" width="13" height="8" rx="2" fill="#d92646" opacity="0.49" style="animation-delay:0.00s"/>
    <rect class="bar" x="665" y="217" width="13" height="17" rx="2" fill="#d92646" opacity="0.53" style="animation-delay:0.09s"/>
    <rect class="bar" x="684" y="223" width="13" height="11" rx="2" fill="#d92646" opacity="0.50" style="animation-delay:0.18s"/>
    <rect class="bar" x="703" y="227" width="13" height="7" rx="2" fill="#d92646" opacity="0.48" style="animation-delay:0.27s"/>
    <rect class="bar" x="722" y="179" width="13" height="55" rx="2" fill="#d92646" opacity="0.70" style="animation-delay:0.36s"/>
    <rect class="bar" x="741" y="220" width="13" height="14" rx="2" fill="#d92646" opacity="0.51" style="animation-delay:0.45s"/>
    <rect class="bar" x="760" y="217" width="13" height="17" rx="2" fill="#d92646" opacity="0.53" style="animation-delay:0.54s"/>
    <rect class="bar" x="779" y="231" width="13" height="3" rx="2" fill="#d92646" opacity="0.46" style="animation-delay:0.63s"/>
    <rect class="bar" x="798" y="227" width="13" height="7" rx="2" fill="#d92646" opacity="0.48" style="animation-delay:0.72s"/>
    <rect class="bar" x="817" y="211" width="13" height="23" rx="2" fill="#d92646" opacity="0.56" style="animation-delay:0.81s"/>
    <rect class="bar" x="836" y="168" width="13" height="66" rx="2" fill="#d92646" opacity="0.76" style="animation-delay:0.90s"/>
    <rect class="bar" x="855" y="116" width="13" height="118" rx="2" fill="#d92646" opacity="1.00" style="animation-delay:0.99s"/>
    <rect class="bar" x="874" y="199" width="13" height="35" rx="2" fill="#d92646" opacity="0.61" style="animation-delay:1.08s"/>
    <rect class="bar" x="893" y="199" width="13" height="35" rx="2" fill="#d92646" opacity="0.61" style="animation-delay:1.17s"/>
  <line x1="644" y1="235" x2="912" y2="235" stroke="#ff2a4d" stroke-opacity=".3"/>
  <text x="36" y="284" font-size="13" letter-spacing="1" fill="#6e4a53">&gt; NEXT SYNC&#160;&#160;T-</text>
  <text x="188" y="284" font-size="15" fill="#ffb3c0">:</text><text x="224" y="284" font-size="15" fill="#ffb3c0">:</text><clipPath id="w176"><rect x="175" y="270" width="12" height="18"/></clipPath><g clip-path="url(#w176)"><g><animateTransform attributeName="transform" type="translate" calcMode="discrete" values="0 0;0 -20;0 -40;0 -60;0 -80;0 -100" dur="21600s" begin="-4858.5s" repeatCount="indefinite"/><text x="176" y="284" font-size="15" fill="#ffb3c0">5</text><text x="176" y="304" font-size="15" fill="#ffb3c0">4</text><text x="176" y="324" font-size="15" fill="#ffb3c0">3</text><text x="176" y="344" font-size="15" fill="#ffb3c0">2</text><text x="176" y="364" font-size="15" fill="#ffb3c0">1</text><text x="176" y="384" font-size="15" fill="#ffb3c0">0</text></g></g><clipPath id="w200"><rect x="199" y="270" width="12" height="18"/></clipPath><g clip-path="url(#w200)"><g><animateTransform attributeName="transform" type="translate" calcMode="discrete" values="0 0;0 -20;0 -40;0 -60;0 -80;0 -100" dur="3600s" begin="-1258.5s" repeatCount="indefinite"/><text x="200" y="284" font-size="15" fill="#ffb3c0">5</text><text x="200" y="304" font-size="15" fill="#ffb3c0">4</text><text x="200" y="324" font-size="15" fill="#ffb3c0">3</text><text x="200" y="344" font-size="15" fill="#ffb3c0">2</text><text x="200" y="364" font-size="15" fill="#ffb3c0">1</text><text x="200" y="384" font-size="15" fill="#ffb3c0">0</text></g></g><clipPath id="w212"><rect x="211" y="270" width="12" height="18"/></clipPath><g clip-path="url(#w212)"><g><animateTransform attributeName="transform" type="translate" calcMode="discrete" values="0 0;0 -20;0 -40;0 -60;0 -80;0 -100;0 -120;0 -140;0 -160;0 -180" dur="600s" begin="-58.5s" repeatCount="indefinite"/><text x="212" y="284" font-size="15" fill="#ffb3c0">9</text><text x="212" y="304" font-size="15" fill="#ffb3c0">8</text><text x="212" y="324" font-size="15" fill="#ffb3c0">7</text><text x="212" y="344" font-size="15" fill="#ffb3c0">6</text><text x="212" y="364" font-size="15" fill="#ffb3c0">5</text><text x="212" y="384" font-size="15" fill="#ffb3c0">4</text><text x="212" y="404" font-size="15" fill="#ffb3c0">3</text><text x="212" y="424" font-size="15" fill="#ffb3c0">2</text><text x="212" y="444" font-size="15" fill="#ffb3c0">1</text><text x="212" y="464" font-size="15" fill="#ffb3c0">0</text></g></g><clipPath id="w236"><rect x="235" y="270" width="12" height="18"/></clipPath><g clip-path="url(#w236)"><g><animateTransform attributeName="transform" type="translate" calcMode="discrete" values="0 0;0 -20;0 -40;0 -60;0 -80;0 -100" dur="60s" begin="-58.5s" repeatCount="indefinite"/><text x="236" y="284" font-size="15" fill="#ffb3c0">5</text><text x="236" y="304" font-size="15" fill="#ffb3c0">4</text><text x="236" y="324" font-size="15" fill="#ffb3c0">3</text><text x="236" y="344" font-size="15" fill="#ffb3c0">2</text><text x="236" y="364" font-size="15" fill="#ffb3c0">1</text><text x="236" y="384" font-size="15" fill="#ffb3c0">0</text></g></g><clipPath id="w248"><rect x="247" y="270" width="12" height="18"/></clipPath><g clip-path="url(#w248)"><g><animateTransform attributeName="transform" type="translate" calcMode="discrete" values="0 0;0 -20;0 -40;0 -60;0 -80;0 -100;0 -120;0 -140;0 -160;0 -180" dur="10s" begin="-8.5s" repeatCount="indefinite"/><text x="248" y="284" font-size="15" fill="#ffb3c0">9</text><text x="248" y="304" font-size="15" fill="#ffb3c0">8</text><text x="248" y="324" font-size="15" fill="#ffb3c0">7</text><text x="248" y="344" font-size="15" fill="#ffb3c0">6</text><text x="248" y="364" font-size="15" fill="#ffb3c0">5</text><text x="248" y="384" font-size="15" fill="#ffb3c0">4</text><text x="248" y="404" font-size="15" fill="#ffb3c0">3</text><text x="248" y="424" font-size="15" fill="#ffb3c0">2</text><text x="248" y="444" font-size="15" fill="#ffb3c0">1</text><text x="248" y="464" font-size="15" fill="#ffb3c0">0</text></g></g>
  <text x="292" y="284" font-size="13" fill="#6e4a53">UTC · cadence 6h <tspan class="cur" fill="#ff5c72">█</tspan></text>
</svg>
